<svg xmlns="http://www.w3.org/2000/svg" viewBox="0 0 512 512" fill="none">
  <rect width="512" height="512" rx="120" fill="#0A0A0A" />
  <path d="M362 201C362 163.5 329.5 131 289 131C248.5 131 216 163.5 216 201V210H296V201C296 195 301 190 307 190C313 190 318 195 318 201V253C318 276.5 299 295.5 275.5 295.5H236.5C196.5 295.5 164 328 164 368V380H244V368C244 362 249 357 255 357C261 357 266 362 266 368V416C266 439.5 285 458.5 308.5 458.5H348.5C388.5 458.5 421 426 421 386V374H341V386C341 392 336 397 330 397C324 397 319 392 319 386V334C319 310.5 338 291.5 361.5 291.5H400.5C440.5 291.5 473 259 473 219V201H362Z" fill="#FACC15" />
  <path d="M150 148L112 110" stroke="#FACC15" stroke-width="32" stroke-linecap="round" />
  <path d="M112 402L150 364" stroke="#FACC15" stroke-width="32" stroke-linecap="round" />
</svg>
